# xmcd CD database file
#
# Track frame offsets:
#	150
#	2060
#	16244
#	33653
#	48812
#	67622
#	81623
#	99351
#	119692
#	131213
#	148618
#
# Disc length: 2235 seconds
#
# Revision: 0
# Processed by: cddbd v1.5.1PL0 Copyright (c) Steve Scherf et al.
# Submitted via: CDex 1.51
#
DISCID=9008b90b
DTITLE=tubTRACK - Rebirth
DYEAR=2003
DGENRE=Hard Rock
TTITLE0=Rebirth
TTITLE1=slave of the nation
TTITLE2=call Name
TTITLE3=if cried
TTITLE4=deep forest
TTITLE5=confused
TTITLE6=free World
TTITLE7=war and dream
TTITLE8=re-engine
TTITLE9=sin
TTITLE10=evolution
EXTD=YEAR: 2003
EXTT0=
EXTT1=
EXTT2=
EXTT3=
EXTT4=
EXTT5=
EXTT6=
EXTT7=
EXTT8=
EXTT9=
EXTT10=
PLAYORDER=
